HIERARCHY
ROOT Hip
{
  OFFSET 0.0 0.0 0.0
  CHANNELS 6 Xposition Yposition Zposition Xrotation Yrotation Zrotation
  JOINT LowerSpine
  {
    OFFSET 0.0 0.061367 -0.03653
    CHANNELS 3 Xrotation Yrotation Zrotation
    JOINT MiddleSpine
    {
      OFFSET 0.0 0.056002 0.002633
      CHANNELS 3 Xrotation Yrotation Zrotation
      JOINT Chest
      {
        OFFSET 0.0 0.069296 -0.013882
        CHANNELS 3 Xrotation Yrotation Zrotation
        JOINT Neck
        {
          OFFSET 0.0 0.156156 -0.002923
          CHANNELS 3 Xrotation Yrotation Zrotation
          JOINT Head
          {
            OFFSET 0.0 0.088183 0.023986
            CHANNELS 3 Xrotation Yrotation Zrotation
            End Site
            {
              OFFSET 1e-06 0.123215 0.003678
            }
          }
        }
        JOINT LClavicle
        {
          OFFSET 0.014189 0.150698 0.046467
          CHANNELS 3 Xrotation Yrotation Zrotation
          JOINT LShoulder
          {
            OFFSET 0.082893 0.021616 -0.034976
            CHANNELS 3 Xrotation Yrotation Zrotation
            JOINT LForearm
            {
              OFFSET 0.195645 -0.000695 -0.001695
              CHANNELS 3 Xrotation Yrotation Zrotation
              JOINT LHand
              {
                OFFSET 0.163209 0.000474 -0.000977
                CHANNELS 3 Xrotation Yrotation Zrotation
                End Site
                {
                  OFFSET 0.0 0.006864 0.0
                }
              }
            }
          }
        }
        JOINT RClavicle
        {
          OFFSET -0.014189 0.150698 0.046467
          CHANNELS 3 Xrotation Yrotation Zrotation
          JOINT RShoulder
          {
            OFFSET -0.082908 0.021619 -0.034982
            CHANNELS 3 Xrotation Yrotation Zrotation
            JOINT RForearm
            {
              OFFSET -0.195645 -0.000695 -0.001695
              CHANNELS 3 Xrotation Yrotation Zrotation
              JOINT RHand
              {
                OFFSET -0.163209 0.000474 -0.000977
                CHANNELS 3 Xrotation Yrotation Zrotation
                End Site
                {
                  OFFSET 0.0 0.006864 0.0
                }
              }
            }
          }
        }
      }
    }
  }
  JOINT RThigh
  {
    OFFSET -0.072558 0.02774 -0.005953
    CHANNELS 3 Xrotation Yrotation Zrotation
    JOINT RShin
    {
      OFFSET -0.005253 -0.285537 0.0
      CHANNELS 3 Xrotation Yrotation Zrotation
      JOINT RFoot
      {
        OFFSET 0.0 -0.28038 0.0
        CHANNELS 3 Xrotation Yrotation Zrotation
        JOINT RToe
        {
          OFFSET 0.0 -0.030816 0.064441
          CHANNELS 3 Xrotation Yrotation Zrotation
          End Site
          {
            OFFSET 0.0 0.0 0.043231
          }
        }
      }
    }
  }
  JOINT LThigh
  {
    OFFSET 0.072557 0.027741 -0.005953
    CHANNELS 3 Xrotation Yrotation Zrotation
    JOINT LShin
    {
      OFFSET 0.005253 -0.285539 0.0
      CHANNELS 3 Xrotation Yrotation Zrotation
      JOINT LFoot
      {
        OFFSET 0.0 -0.28038 0.0
        CHANNELS 3 Xrotation Yrotation Zrotation
        JOINT LToe
        {
          OFFSET 0.0 -0.030816 0.064441
          CHANNELS 3 Xrotation Yrotation Zrotation
          End Site
          {
            OFFSET 0.0 0.0 0.043231
          }
        }
      }
    }
  }
}
MOTION
Frames: 16
Frame Time: 0.03333333333333333
-0.005302 0.58054 -0.022455 8.465177 1.666463 -0.726204 0.499534 -0.233818 -0.962165 0.488385 1.52089 -0.64534 1.44532 2.711574 0.302391 0.151185 0.465031 -0.441438 0.006378 0.136193 -0.032251 1.924258 1.035483 -15.630335 14.36904 -28.521023 -61.761002 7.427442 -49.04414 -0.299131 0.173943 0.179566 -0.145854 1.258975 -3.846814 16.209694 4.976321 38.239452 75.806763 3.195501 37.239304 -2.001873 0.420468 -0.457832 0.015713 -17.9205 -2.79329 0.666937 19.476833 -5.110332 2.814441 -3.367793 0.032702 -0.494409 0.139813 0.505905 0.018679 -14.810413 6.420259 0.32226 13.575023 8.275538 -3.890071 -2.515713 0.697243 0.215566 0.029352 -0.119331 0.068174 
-0.006583 0.578228 -0.028233 2.579084 0.472378 1.430055 1.28818 -0.278574 0.24767 0.024296 1.412976 0.214914 3.412267 5.120993 -2.151202 1.444631 0.676552 -0.09925 0.054398 -0.386367 -0.038807 -0.01654 -1.21589 -15.705503 14.434078 -26.070534 -62.661816 10.002645 -49.393734 2.036311 0.128729 0.201661 -0.138396 -0.513104 -1.508873 15.549463 4.094441 35.68779 73.927589 4.203102 36.282814 0.792775 -0.19278 -0.126418 -0.011022 -12.385595 -0.065245 1.423078 16.984694 -2.783481 0.084109 -2.829266 -0.689401 -0.987932 -0.126028 0.192883 0.115957 -3.185649 9.607625 -1.251182 5.376778 7.123801 -4.117599 -3.53148 0.492033 0.647102 0.130916 -0.235069 -0.071369 
-0.006646 0.575706 -0.028675 3.471728 0.31022 1.185416 1.197903 -0.373252 0.228426 0.033388 1.223034 0.31165 3.02669 4.686336 -2.544524 1.4658 0.604272 -0.071071 0.038374 -0.377753 -0.031067 -0.2771 -1.208315 -15.451872 14.989996 -25.824514 -63.008125 10.630882 -49.936157 1.636673 0.103256 0.174026 -0.116435 -0.638967 -0.946432 15.45762 4.976984 36.884945 73.267937 5.598083 38.865063 1.910575 -0.248671 -0.062511 -0.009922 -13.105273 -0.512421 1.670322 16.379333 -2.792054 0.022458 -2.508426 -0.628162 -0.890122 -0.145901 0.139919 0.106275 -4.719461 11.028778 -0.82572 5.967123 8.036804 -4.105709 -3.423751 0.355185 0.602689 0.113081 -0.195079 -0.072506 
-0.010661 0.576639 -0.022251 3.992049 0.916354 0.884267 0.994806 -0.413408 0.212753 0.238323 1.197259 0.305492 3.829874 4.50664 -2.539982 1.312347 0.572844 -0.076808 0.032515 -0.341175 -0.022961 -0.148825 -1.130563 -15.627951 14.614841 -26.44803 -63.773472 10.307726 -49.679947 1.063497 0.092925 0.160802 -0.099789 -0.451188 -0.837287 15.459541 5.182369 36.870045 73.264641 5.153022 42.528931 2.829296 -0.245154 -0.051928 -0.005967 -12.829479 -0.996126 1.905001 15.779482 -2.920321 -0.095575 -2.545783 -0.495587 -0.803671 -0.137812 0.137563 0.102554 -5.166254 11.318398 -0.631183 6.414113 8.414838 -3.950076 -3.384455 0.425846 0.620157 0.103645 -0.174116 -0.064581 
-0.014114 0.575787 -0.02184 4.097943 1.349139 0.445052 0.872221 -0.455697 0.216578 0.437227 1.215988 0.327424 4.652812 4.684005 -2.358306 1.185951 0.564106 -0.094272 0.031256 -0.324599 -0.019768 0.005097 -1.120084 -15.862131 13.954885 -27.365969 -64.373772 9.617374 -48.252975 0.508714 0.091713 0.162062 -0.098173 -0.283113 -0.825642 15.361985 4.979328 36.925156 73.288025 4.622447 44.693405 3.088877 -0.234436 -0.064844 -0.004032 -12.169343 -1.142916 2.108228 15.849732 -3.003472 -0.108431 -2.734148 -0.417607 -0.782147 -0.149156 0.161132 0.108821 -5.431756 11.161382 -0.319433 6.656757 8.388347 -3.731306 -3.420188 0.487378 0.635412 0.103604 -0.172695 -0.061484 
-0.016443 0.574545 -0.025485 4.066156 1.704906 0.130321 0.825809 -0.484118 0.208052 0.587832 1.230173 0.35245 5.158186 4.872167 -2.093535 1.110814 0.564529 -0.10644 0.031307 -0.314285 -0.019227 0.108614 -1.104357 -15.997192 13.243678 -28.169432 -64.87471 8.973664 -46.740875 0.150328 0.091828 0.164228 -0.099735 -0.177316 -0.836929 15.272713 4.786256 37.033154 73.217186 4.225343 45.706242 2.990647 -0.218247 -0.080673 -0.002932 -11.795855 -1.312674 2.288881 16.411037 -3.154112 -0.030218 -2.94263 -0.389729 -0.783956 -0.16022 0.176106 0.113543 -5.844419 10.583071 -0.072337 6.773458 8.008262 -3.503176 -3.444865 0.509874 0.621083 0.103552 -0.171239 -0.058095 
-0.01635 0.573749 -0.028305 4.099752 2.140801 -0.075396 0.821747 -0.500305 0.198772 0.669947 1.24814 0.373994 5.286664 5.037958 -1.897048 1.070542 0.568619 -0.108821 0.032069 -0.309597 -0.018945 0.143001 -1.111521 -16.007881 12.788034 -28.823227 -65.294785 8.569301 -45.542671 -0.102871 0.092701 0.166639 -0.101769 -0.13835 -0.81787 15.18544 4.478333 37.344193 73.262054 4.129615 45.32732 2.777995 -0.205043 -0.092768 -0.002898 -11.915142 -1.289563 2.463718 17.277292 -3.198789 0.013438 -3.124983 -0.408194 -0.804024 -0.167824 0.184342 0.117051 -6.431291 9.918942 0.042058 6.795969 7.522162 -3.365987 -3.461181 0.497741 0.586231 0.104326 -0.171487 -0.056728 
-0.015148 0.572592 -0.030177 4.3918 2.600382 -0.13834 0.843099 -0.504763 0.188901 0.682712 1.25391 0.38337 5.019066 5.10124 -1.805511 1.067091 0.578259 -0.111987 0.033879 -0.311378 -0.019567 0.139922 -1.137918 -15.958669 12.628719 -29.061399 -65.579597 8.396144 -45.0709 -0.233335 0.094469 0.169285 -0.103669 -0.129347 -0.799219 15.125229 4.125454 37.575775 73.520973 4.19503 44.129974 2.597952 -0.200297 -0.098502 -0.003977 -12.524543 -1.320886 2.576467 18.108389 -3.250035 0.052553 -3.190474 -0.446149 -0.829687 -0.173112 0.188667 0.120164 -7.17049 9.50879 0.036416 6.803236 7.164721 -3.309662 -3.43373 0.462714 0.543546 0.106074 -0.173347 -0.058162 
-0.013843 0.570685 -0.031477 5.218463 3.07353 -0.262401 0.87181 -0.498166 0.189912 0.656619 1.25008 0.37726 4.611653 5.099154 -1.822516 1.0761 0.587462 -0.113597 0.036051 -0.319512 -0.021164 0.128909 -1.1485 -15.90494 12.619089 -29.067688 -65.752129 8.370498 -45.103355 -0.272846 0.097574 0.17356 -0.106244 -0.132482 -0.806764 15.111579 3.771309 37.752232 73.886543 4.326607 42.257099 2.491408 -0.201426 -0.09934 -0.005741 -14.034164 -1.277419 2.751853 19.215862 -3.299956 0.081905 -3.210611 -0.494343 -0.856928 -0.177612 0.192096 0.123719 -8.613952 9.211436 0.077777 7.215219 6.948843 -3.367471 -3.385222 0.4302 0.507061 0.108482 -0.176527 -0.06184 
-0.01302 0.567702 -0.033757 6.66194 3.423976 -0.466236 0.89437 -0.497917 0.176184 0.595553 1.241646 0.35358 4.112594 5.018545 -1.916255 1.077466 0.598242 -0.119202 0.038424 -0.325924 -0.024038 0.155957 -1.107236 -15.80313 12.641137 -29.068014 -65.843964 8.417154 -45.274754 -0.262254 0.101236 0.178652 -0.10977 -0.104553 -0.88721 15.141231 3.314655 38.030918 74.349983 4.502199 39.821938 2.343595 -0.196153 -0.102773 -0.007289 -16.539772 -1.120386 2.936678 20.609877 -3.375761 0.155082 -3.226722 -0.557924 -0.885242 -0.17933 0.197683 0.125876 -10.927772 8.988705 0.249707 8.116526 6.930736 -3.535133 -3.360142 0.419978 0.478185 0.110746 -0.17898 -0.065765 
-0.013205 0.563127 -0.038717 9.22934 3.65349 -0.544324 0.904278 -0.492765 0.145778 0.458322 1.194317 0.303285 3.035317 4.831767 -2.087469 1.081905 0.618282 -0.124544 0.039877 -0.322881 -0.025865 0.218056 -1.020259 -15.688016 12.922121 -28.837038 -65.919159 8.342959 -45.414192 -0.414607 0.103607 0.181951 -0.112687 -0.024051 -0.992834 15.158981 3.138085 38.138268 74.901215 4.603764 37.174892 2.204268 -0.184932 -0.102502 -0.008337 -20.836376 -0.744649 3.123786 22.687197 -3.416522 0.279991 -3.408342 -0.642715 -0.914772 -0.180586 0.203604 0.124147 -15.045126 8.740058 0.413479 9.881643 6.968166 -3.723756 -3.350803 0.395497 0.448376 0.111755 -0.177653 -0.068014 
-0.013802 0.556955 -0.047359 13.202353 3.915468 -0.693992 0.812701 -0.47892 0.135811 0.250517 1.105028 0.250834 1.507826 4.439689 -2.395749 1.012686 0.629661 -0.147328 0.041492 -0.315427 -0.027951 0.344411 -0.843034 -15.612108 13.599939 -28.577139 -65.660172 8.544835 -45.727123 -0.489131 0.105561 0.186597 -0.115899 0.104794 -1.123886 15.226888 3.614073 38.212437 75.06292 4.769918 34.590305 2.123456 -0.171125 -0.103778 -0.009837 -27.878138 -0.122902 3.470898 26.209379 -3.420681 0.35332 -3.599302 -0.740009 -0.956757 -0.178841 0.211791 0.120342 -21.805677 8.32527 0.708215 13.313475 7.131241 -4.053429 -3.298951 0.36044 0.426105 0.113357 -0.176251 -0.071079 
-0.0154 0.548957 -0.060346 18.784512 4.352178 -1.018649 0.652048 -0.467389 0.133116 -0.012989 0.986855 0.211612 -0.236326 3.932137 -2.724798 0.894303 0.648917 -0.164121 0.042352 -0.313168 -0.029224 0.53306 -0.613362 -15.570552 14.456647 -28.391975 -65.173485 9.048487 -45.921703 -0.487561 0.108382 0.192302 -0.120016 0.257436 -1.310616 15.361898 4.548977 38.10199 74.947014 4.867001 32.585815 2.183921 -0.158024 -0.105864 -0.012343 -38.364601 0.506779 4.000366 31.743181 -3.476465 0.368827 -3.777842 -0.863005 -1.025985 -0.175644 0.226386 0.118526 -32.00486 7.619713 1.180669 19.200777 7.278291 -4.545888 -3.168273 0.326089 0.406884 0.114723 -0.175095 -0.074777 
-0.01791 0.538608 -0.076908 25.938194 4.715682 -1.403757 0.408698 -0.456899 0.126634 -0.288996 0.850828 0.154619 -2.086297 3.289776 -3.082171 0.709484 0.658215 -0.203934 0.043299 -0.30116 -0.029646 0.786395 -0.314462 -15.544655 15.51049 -28.462835 -64.305412 9.818658 -46.038612 -0.483237 0.110879 0.197529 -0.123078 0.459653 -1.532241 15.539936 5.882677 38.056854 74.494568 5.14164 31.062346 2.20446 -0.134313 -0.115717 -0.015052 -52.165596 1.187783 4.649947 38.961235 -3.55759 0.366786 -3.960393 -0.961019 -1.087657 -0.170033 0.250289 0.118753 -46.0229 6.536672 1.836773 28.540253 7.36095 -5.180097 -2.991609 0.308166 0.384771 0.116084 -0.174594 -0.079553 
-0.020564 0.52633 -0.089469 31.56229 5.281733 -1.353384 0.121807 -0.433905 0.170844 -0.472062 0.768769 0.111243 -3.155172 2.676511 -3.40394 0.50203 0.638306 -0.236588 0.041504 -0.289592 -0.028846 1.011859 -0.059623 -15.788413 16.696878 -28.762264 -63.057156 10.948161 -46.555706 -0.565303 0.10923 0.195294 -0.117173 0.651036 -1.710261 15.85078 7.560363 37.87748 73.620468 5.009594 30.31991 2.663928 -0.114833 -0.119606 -0.017028 -63.819778 1.991552 5.106499 45.807583 -3.447298 0.193529 -4.270391 -1.073426 -1.14889 -0.15994 0.261122 0.11624 -58.002213 5.470271 2.131383 37.960175 7.32471 -5.717323 -2.905884 0.354824 0.393177 0.111747 -0.167357 -0.082085 
-0.024487 0.513559 -0.098729 36.100998 5.680561 -0.586655 -0.141379 -0.448749 0.230447 -0.624868 0.762448 0.077486 -3.978045 2.199301 -3.60076 0.285839 0.621833 -0.264139 0.040684 -0.28976 -0.028336 1.214857 0.136917 -16.06181 18.069242 -28.548933 -61.82613 11.97188 -47.028656 -0.506227 0.108348 0.193693 -0.111624 0.789031 -1.832693 16.130733 9.386209 37.356705 72.80526 5.359466 30.452623 2.808873 -0.110207 -0.130593 -0.020198 -73.54158 2.780348 5.520388 52.007023 -3.258228 -0.037743 -4.765517 -1.215871 -1.239809 -0.149569 0.263213 0.11469 -67.53743 4.465865 2.22666 45.699524 7.164213 -6.156982 -2.936409 0.443439 0.458236 0.109774 -0.161005 -0.082839 
